<svg width="48" height="48" viewBox="0 0 48 48" fill="none" xmlns="http://www.w3.org/2000/svg">
<circle cx="24" cy="24" r="24" fill="#2D3748"/>
<path fill-rule="evenodd" clip-rule="evenodd" d="M15.4595 17.5146C16.3943 16.5845 17.6621 16.062 18.9839 16.062C20.3057 16.062 21.5734 16.5845 22.5082 17.5146L23.9688 18.967L25.4294 17.5146C25.8893 17.0408 26.4393 16.6628 27.0475 16.4028C27.6557 16.1428 28.3098 16.0059 28.9717 16.0002C29.6336 15.9945 30.29 16.12 30.9027 16.3694C31.5153 16.6189 32.0719 16.9873 32.5399 17.4531C33.008 17.919 33.3781 18.4729 33.6288 19.0826C33.8794 19.6923 34.0056 20.3456 33.9998 21.0044C33.9941 21.6631 33.8565 22.3142 33.5953 22.9195C33.334 23.5248 32.9543 24.0722 32.4782 24.5299L23.9688 33L15.4595 24.5299C14.525 23.5995 14 22.3378 14 21.0222C14 19.7067 14.525 18.445 15.4595 17.5146Z" fill="white"/>
</svg>
