<svg width="48" height="48" viewBox="0 0 48 48" fill="none" xmlns="http://www.w3.org/2000/svg">
<path fill-rule="evenodd" clip-rule="evenodd" d="M24 48C30.3652 48 36.4697 45.4714 40.9706 40.9706C45.4714 36.4697 48 30.3652 48 24C48 17.6348 45.4714 11.5303 40.9706 7.02944C36.4697 2.52856 30.3652 0 24 0C17.6348 0 11.5303 2.52856 7.02944 7.02944C2.52856 11.5303 0 17.6348 0 24C0 30.3652 2.52856 36.4697 7.02944 40.9706C11.5303 45.4714 17.6348 48 24 48V48ZM20.121 15.879C19.5552 15.3325 18.7974 15.0301 18.0108 15.037C17.2242 15.0438 16.4718 15.3593 15.9155 15.9155C15.3593 16.4718 15.0438 17.2242 15.037 18.0108C15.0301 18.7974 15.3325 19.5552 15.879 20.121L19.758 24L15.879 27.879C15.5925 28.1557 15.3639 28.4868 15.2067 28.8528C15.0495 29.2188 14.9667 29.6125 14.9632 30.0108C14.9598 30.4091 15.0357 30.8042 15.1865 31.1729C15.3374 31.5416 15.5601 31.8765 15.8418 32.1582C16.1235 32.4399 16.4584 32.6626 16.8271 32.8135C17.1958 32.9643 17.5909 33.0402 17.9892 33.0368C18.3875 33.0333 18.7812 32.9505 19.1472 32.7933C19.5132 32.6361 19.8443 32.4075 20.121 32.121L24 28.242L27.879 32.121C28.4448 32.6675 29.2026 32.9699 29.9892 32.963C30.7758 32.9562 31.5282 32.6407 32.0845 32.0845C32.6407 31.5282 32.9562 30.7758 32.963 29.9892C32.9699 29.2026 32.6675 28.4448 32.121 27.879L28.242 24L32.121 20.121C32.6675 19.5552 32.9699 18.7974 32.963 18.0108C32.9562 17.2242 32.6407 16.4718 32.0845 15.9155C31.5282 15.3593 30.7758 15.0438 29.9892 15.037C29.2026 15.0301 28.4448 15.3325 27.879 15.879L24 19.758L20.121 15.879Z" fill="#2D3748"/>
</svg>
